<svg width="127" height="28" viewBox="0 0 127 28"  xmlns="http://www.w3.org/2000/svg">
    <path d="M7.11 21V4.05H0.99V-1.43051e-06H17.91V4.05H11.61V21H7.11ZM21.6265 21V-1.43051e-06H30.7465C32.1465 -1.43051e-06 33.3265 0.209999 34.2865 0.629999C35.2665 1.03 36.0065 1.62 36.5065 2.4C37.0065 3.18 37.2565 4.11 37.2565 5.19C37.2565 6.39 36.9565 7.39 36.3565 8.19C35.7565 8.99 34.8965 9.54 33.7765 9.84L33.7465 9.24C34.6665 9.46 35.4765 9.82 36.1765 10.32C36.8765 10.82 37.4165 11.44 37.7965 12.18C38.1765 12.92 38.3665 13.76 38.3665 14.7C38.3665 15.74 38.1965 16.66 37.8565 17.46C37.5165 18.24 37.0165 18.89 36.3565 19.41C35.6965 19.93 34.9165 20.33 34.0165 20.61C33.1365 20.87 32.1465 21 31.0465 21H21.6265ZM25.9465 17.1H30.8665C31.5065 17.1 32.0465 17.01 32.4865 16.83C32.9465 16.63 33.2965 16.33 33.5365 15.93C33.7765 15.53 33.8965 15.06 33.8965 14.52C33.8965 14 33.7665 13.56 33.5065 13.2C33.2465 12.84 32.8765 12.57 32.3965 12.39C31.9365 12.19 31.3765 12.09 30.7165 12.09H25.9465V17.1ZM25.9465 8.52H30.2065C30.7465 8.52 31.2165 8.42 31.6165 8.22C32.0165 8.02 32.3165 7.75 32.5165 7.41C32.7365 7.07 32.8465 6.67 32.8465 6.21C32.8465 5.47 32.6065 4.9 32.1265 4.5C31.6465 4.1 30.9265 3.9 29.9665 3.9H25.9465V8.52ZM47.7673 21.3C46.4473 21.3 45.2573 20.94 44.1973 20.22C43.1373 19.5 42.2973 18.52 41.6773 17.28C41.0573 16.04 40.7473 14.62 40.7473 13.02C40.7473 11.42 41.0573 10.01 41.6773 8.79C42.3173 7.55 43.1773 6.58 44.2573 5.88C45.3373 5.16 46.5673 4.8 47.9473 4.8C48.7273 4.8 49.4373 4.92 50.0773 5.16C50.7373 5.38 51.3073 5.69 51.7873 6.09C52.2873 6.49 52.7073 6.95 53.0473 7.47C53.3873 7.99 53.6273 8.55 53.7673 9.15L52.8673 9V5.13H57.0973V21H52.8073V17.19L53.7673 17.1C53.6073 17.66 53.3473 18.19 52.9873 18.69C52.6273 19.19 52.1773 19.64 51.6373 20.04C51.1173 20.42 50.5273 20.73 49.8673 20.97C49.2073 21.19 48.5073 21.3 47.7673 21.3ZM48.9373 17.61C49.7373 17.61 50.4373 17.42 51.0373 17.04C51.6373 16.66 52.0973 16.13 52.4173 15.45C52.7573 14.75 52.9273 13.94 52.9273 13.02C52.9273 12.12 52.7573 11.33 52.4173 10.65C52.0973 9.97 51.6373 9.44 51.0373 9.06C50.4373 8.66 49.7373 8.46 48.9373 8.46C48.1573 8.46 47.4673 8.66 46.8673 9.06C46.2873 9.44 45.8273 9.97 45.4873 10.65C45.1473 11.33 44.9773 12.12 44.9773 13.02C44.9773 13.94 45.1473 14.75 45.4873 15.45C45.8273 16.13 46.2873 16.66 46.8673 17.04C47.4673 17.42 48.1573 17.61 48.9373 17.61ZM63.2367 27.9L66.7167 19.74L66.7767 22.2L59.0367 5.13H63.8667L67.7367 14.28C67.8967 14.62 68.0467 15.02 68.1867 15.48C68.3467 15.92 68.4767 16.35 68.5767 16.77L67.8567 17.07C67.9767 16.73 68.1167 16.34 68.2767 15.9C68.4367 15.46 68.5967 14.99 68.7567 14.49L72.0867 5.13H76.9467L70.2867 21L67.5567 27.9H63.2367ZM79.8394 21V-1.43051e-06H94.0294V3.96H84.2194V17.04H94.2394V21H79.8394ZM81.9394 12.21V8.37H92.5894V12.21H81.9394ZM104.076 21.3C102.756 21.3 101.566 20.94 100.506 20.22C99.4459 19.5 98.6059 18.52 97.9859 17.28C97.3659 16.04 97.0559 14.62 97.0559 13.02C97.0559 11.42 97.3659 10.01 97.9859 8.79C98.6259 7.55 99.4859 6.58 100.566 5.88C101.646 5.16 102.876 4.8 104.256 4.8C105.036 4.8 105.746 4.92 106.386 5.16C107.046 5.38 107.616 5.69 108.096 6.09C108.596 6.49 109.016 6.95 109.356 7.47C109.696 7.99 109.936 8.55 110.076 9.15L109.176 9V5.13H113.406V21H109.116V17.19L110.076 17.1C109.916 17.66 109.656 18.19 109.296 18.69C108.936 19.19 108.486 19.64 107.946 20.04C107.426 20.42 106.836 20.73 106.176 20.97C105.516 21.19 104.816 21.3 104.076 21.3ZM105.246 17.61C106.046 17.61 106.746 17.42 107.346 17.04C107.946 16.66 108.406 16.13 108.726 15.45C109.066 14.75 109.236 13.94 109.236 13.02C109.236 12.12 109.066 11.33 108.726 10.65C108.406 9.97 107.946 9.44 107.346 9.06C106.746 8.66 106.046 8.46 105.246 8.46C104.466 8.46 103.776 8.66 103.176 9.06C102.596 9.44 102.136 9.97 101.796 10.65C101.456 11.33 101.286 12.12 101.286 13.02C101.286 13.94 101.456 14.75 101.796 15.45C102.136 16.13 102.596 16.66 103.176 17.04C103.776 17.42 104.466 17.61 105.246 17.61ZM119.207 21V1.11H123.467V21H119.207ZM116.237 8.94V5.13H126.707V8.94H116.237Z" />
</svg>